<?xml version="1.0" encoding="UTF-8"?>
<svg xmlns="http://www.w3.org/2000/svg" xmlns:xlink="http://www.w3.org/1999/xlink" viewBox="0 0 196.05 169.57">
  <defs>
    <style>
      .uuid-1f483df3-e90d-4ebe-afbd-ddf551da0d2f {
        fill: #a2c6db;
      }

      .uuid-481430c7-31cb-4620-8c37-ec9bf60003c0, .uuid-c1edacf8-68a4-4e09-a6cc-e70006bcf6cd {
        fill: #c1e3f9;
      }

      .uuid-264732da-ae33-4052-b45a-c90ea0066b5a, .uuid-a5746e1d-8bbe-454a-8369-540daa81d59b {
        fill: #305e7e;
      }

      .uuid-264732da-ae33-4052-b45a-c90ea0066b5a, .uuid-cb833bad-daa6-44a7-bd42-f5b02d00470a {
        mix-blend-mode: multiply;
        opacity: .3;
      }

      .uuid-fe390c86-6ec8-4c2b-8d11-289f9a8fa6ac {
        fill: #d4647a;
      }

      .uuid-c9efb7b8-9cb1-4ebc-9506-10522296ef74 {
        clip-path: url(#uuid-f841fc56-68c4-4efa-91f0-79208710a941);
      }

      .uuid-c04f22ff-5ccb-4bec-91ea-8b48b65f1b01 {
        isolation: isolate;
      }

      .uuid-c1edacf8-68a4-4e09-a6cc-e70006bcf6cd {
        opacity: .2;
      }

      .uuid-359c8854-cdb1-4b0e-a7c2-c2a6b9d92835 {
        fill: #f8b46f;
      }

      .uuid-dffa7c4f-16c4-47bc-9e8b-d1ee00d435ca {
        fill: #f49843;
      }

      .uuid-c9815a26-b0e3-4c20-8dd5-294cd1827609 {
        clip-path: url(#uuid-53ae42c6-d377-42e8-b04b-43e2e38167c7);
      }

      .uuid-09bafd8d-448e-4260-b782-441587362fd8 {
        fill: #fbcea2;
      }

      .uuid-19c11eb5-466b-4137-b02f-782e98ff6193 {
        fill: #d04c5f;
      }

      .uuid-623d1375-242a-478c-b96a-39434d85fb54 {
        fill: #363449;
      }

      .uuid-4f31688b-17fc-4133-9ac3-53915c265dd6 {
        clip-path: url(#uuid-d715af70-dc02-41ff-8c68-e586d22810fc);
      }

      .uuid-a4937050-7acb-461b-8723-8c9addb54b1f {
        clip-path: url(#uuid-e874bbbf-0c3c-44ee-833b-3db892b3ec46);
      }

      .uuid-85b503c3-1d52-4550-a17c-0eeafd5c009c {
        clip-path: url(#uuid-f90b5341-54c9-43c8-a752-0234decfa1f7);
      }

      .uuid-09597ef4-9f3e-4577-8a29-afc777610c28 {
        clip-path: url(#uuid-35993077-47c5-48da-9778-0aa1bcf0adc4);
      }

      .uuid-bd2078ba-a317-4df5-9e39-e10ce69733f6 {
        clip-path: url(#uuid-235099a7-6567-4795-8fd7-3993ebba3943);
      }

      .uuid-342b1d0b-5550-4ca6-91dc-cbfd1b87ff1a {
        clip-path: url(#uuid-b4af1ca5-32f6-40d4-b05f-3bb963d164c1);
      }
    </style>
    <clipPath id="uuid-53ae42c6-d377-42e8-b04b-43e2e38167c7">
      <path class="uuid-a5746e1d-8bbe-454a-8369-540daa81d59b" d="M117.26,168.78c-.36,.14-.72,.26-1.06,.36l-.72-2.46c.48-.14,.98-.33,1.49-.56,7.16-3.22,3.31-17.23-.77-32.07-2.38-8.67-4.84-17.63-5.21-25.04-.44-8.83,2.2-14.22,8.07-16.49,0,0,.02,0,.02,0l.92,2.4s-.01,0-.02,0c-10.74,4.15-5.95,21.59-1.31,38.45,4.38,15.93,8.51,30.97-.65,35.09-.26,.12-.51,.22-.77,.32Z"/>
    </clipPath>
    <clipPath id="uuid-f90b5341-54c9-43c8-a752-0234decfa1f7">
      <path class="uuid-19c11eb5-466b-4137-b02f-782e98ff6193" d="M180.39,105.93c-4.92-16.02-24.29-20.25-36.53-4.16-1.76,2.32-5.04,2.74-7.33,.95-15.92-12.46-33.59-3.45-34.27,13.3-.57,13.95,19.32,35.96,40.36,47.05,3.5,1.84,7.79,1.29,10.7-1.38,17.53-16.06,31.18-42.41,27.08-55.76Z"/>
    </clipPath>
    <clipPath id="uuid-235099a7-6567-4795-8fd7-3993ebba3943">
      <path class="uuid-a5746e1d-8bbe-454a-8369-540daa81d59b" d="M116.2,169.14c-7.82,2.28-11.45-4.99-15.65-13.42-1.83-3.66-3.9-7.8-6.53-11.74-5.13-7.66-9.07-9.57-11.47-9.82-2.27-.23-3.52,.97-3.57,1.02l-1.83-1.8c.08-.09,2.08-2.1,5.56-1.78,4.32,.39,8.84,4.08,13.45,10.95,2.73,4.07,4.83,8.3,6.69,12.02,4.52,9.05,7.13,13.7,12.63,12.1l.72,2.47Z"/>
    </clipPath>
    <clipPath id="uuid-f841fc56-68c4-4efa-91f0-79208710a941">
      <path class="uuid-a5746e1d-8bbe-454a-8369-540daa81d59b" d="M177.35,157.5s-.03,.01-.05,.02l-.92-2.4s.03-.01,.05-.02c5.85-2.26,10.98-7.94,4.87-32.63l2.49-.62c5.25,21.21,3.32,31.87-6.44,35.65Z"/>
    </clipPath>
    <clipPath id="uuid-d715af70-dc02-41ff-8c68-e586d22810fc">
      <path class="uuid-a5746e1d-8bbe-454a-8369-540daa81d59b" d="M177.3,157.52c-.43,.17-.89,.32-1.35,.46-12.21,3.68-20.95-14.71-29.4-32.5-8.05-16.95-16.38-34.48-26.53-30.58l-.92-2.4c12.37-4.76,21.22,13.86,29.78,31.87,7.99,16.81,16.24,34.19,26.34,31.14,.41-.12,.8-.26,1.18-.4l.92,2.4Z"/>
    </clipPath>
    <clipPath id="uuid-b4af1ca5-32f6-40d4-b05f-3bb963d164c1">
      <path class="uuid-a5746e1d-8bbe-454a-8369-540daa81d59b" d="M192.65,99.19c-1.44,13.02-4.95,20.19-10.44,21.29h0c-5.49,1.11-11.5-4.14-17.87-15.59l-2.99,1.66c7.27,13.08,14.31,18.74,21.53,17.28h0c.63-.13,1.24-.3,1.83-.53,6.12-2.37,9.84-10.16,11.34-23.74l-3.4-.38Z"/>
    </clipPath>
    <clipPath id="uuid-e874bbbf-0c3c-44ee-833b-3db892b3ec46">
      <path class="uuid-1f483df3-e90d-4ebe-afbd-ddf551da0d2f" d="M168.06,73.17s0,0,0,0c-.03-.09-.07-.17-.14-.23-.98-1.37-4.28-1.09-5.21-.99-.98,.1-1.73,.66-2.26,2.21l.38,.99,.52,1.36,.38,.99c1.43,.8,2.36,.72,3.16,.14,.76-.55,3.41-2.54,3.22-4.22,0-.09-.01-.17-.05-.26,0,0,0,0,0,0Z"/>
    </clipPath>
    <clipPath id="uuid-35993077-47c5-48da-9778-0aa1bcf0adc4">
      <path class="uuid-1f483df3-e90d-4ebe-afbd-ddf551da0d2f" d="M177.03,71.34s0,0,0,0c-.01-.09,0-.18,.03-.26,.32-1.65,3.44-2.77,4.33-3.06,.94-.31,1.85-.12,2.98,1.07l.07,1.06,.09,1.46,.07,1.06c-.97,1.32-1.85,1.63-2.82,1.44-.92-.18-4.15-.9-4.68-2.5-.04-.08-.06-.16-.06-.26,0,0,0,0,0,0Z"/>
    </clipPath>
  </defs>
  <g class="uuid-c04f22ff-5ccb-4bec-91ea-8b48b65f1b01">
    <g id="uuid-1a947aca-712e-4985-9984-c09fa05922ff" data-name="Capa 1">
      <g>
        <g>
          <path class="uuid-a5746e1d-8bbe-454a-8369-540daa81d59b" d="M117.26,168.78c-.36,.14-.72,.26-1.06,.36l-.72-2.46c.48-.14,.98-.33,1.49-.56,7.16-3.22,3.31-17.23-.77-32.07-2.38-8.67-4.84-17.63-5.21-25.04-.44-8.83,2.2-14.22,8.07-16.49,0,0,.02,0,.02,0l.92,2.4s-.01,0-.02,0c-10.74,4.15-5.95,21.59-1.31,38.45,4.38,15.93,8.51,30.97-.65,35.09-.26,.12-.51,.22-.77,.32Z"/>
          <g class="uuid-c9815a26-b0e3-4c20-8dd5-294cd1827609">
            <g class="uuid-cb833bad-daa6-44a7-bd42-f5b02d00470a">
              <path class="uuid-a5746e1d-8bbe-454a-8369-540daa81d59b" d="M118.63,171.04c-.36,.14-.72,.26-1.06,.36l-.72-2.46c.48-.14,.98-.33,1.49-.56,2.18-.99,3.29-3.09,3.73-5.35,.71-3.71-.49-6.64-2.39-9.82-1.09-1.82-2.28-3.61-3.07-5.58-.73-1.8-1.06-3.74-1.78-5.6-1.72-4.43-3.43-8.86-5.15-13.3-.65-1.69-1.31-3.38-1.74-5.14-.92-3.73-.8-7.63-.6-11.46,.05-1.02,.12-2.07,.6-2.97,1.58-3,3.81-5.59,5.81-8.3,1.94-2.62,3.49-4.85,6.69-6.09,0,0,.02,0,.02,0l.92,2.4s-.01,0-.02,0c-10.74,4.15-5.95,21.59-1.31,38.46,4.38,15.93,8.51,30.97-.65,35.09-.26,.12-.51,.22-.77,.32Z"/>
            </g>
          </g>
        </g>
        <g>
          <g>
            <path class="uuid-19c11eb5-466b-4137-b02f-782e98ff6193" d="M180.39,105.93c-4.92-16.02-24.29-20.25-36.53-4.16-1.76,2.32-5.04,2.74-7.33,.95-15.92-12.46-33.59-3.45-34.27,13.3-.57,13.95,19.32,35.96,40.36,47.05,3.5,1.84,7.79,1.29,10.7-1.38,17.53-16.06,31.18-42.41,27.08-55.76Z"/>
            <g class="uuid-85b503c3-1d52-4550-a17c-0eeafd5c009c">
              <path class="uuid-fe390c86-6ec8-4c2b-8d11-289f9a8fa6ac" d="M180.85,100.82c-1.25-5.93-5.03-11.26-10.57-14.07-8.18-4.15-17.65-1.62-24.29,4.23-2.79,2.46-5.12,5.42-7.04,8.6-17.02-19.81-39.67-11.2-41.35,8.14-.8,9.25,5.39,18.61,10.75,25.58,4.95,6.43,10.64,13.72,18.46,16.71,23.61,9.06,47.17-12.32,52.94-34.05,.86-3.24,1.39-6.58,1.53-9.93,.07-1.75-.08-3.51-.44-5.21Z"/>
              <path class="uuid-19c11eb5-466b-4137-b02f-782e98ff6193" d="M159,166.7c-.46,0-.94-.02-1.43-.05-12.72-.9-14.35-21.2-15.91-40.83-1.49-18.71-3.04-38.05-13.92-38.02v-2.57c13.25-.04,14.89,20.51,16.48,40.38,1.48,18.55,3.01,37.73,13.53,38.48,.43,.03,.84,.04,1.24,.04v2.57Z"/>
              <path class="uuid-19c11eb5-466b-4137-b02f-782e98ff6193" d="M166.11,112.04l-.85,.1c-.6-5.04-.79-9.94-.9-14.48-.14-5.48,1.07-9.46,3.5-11.51,2.1-1.78,4.62-1.75,6.37-1.41l.32-1.68c-2.99-.57-5.76,.06-7.8,1.79-2.83,2.4-4.25,6.85-4.1,12.86,.11,4.59,.3,9.54,.91,14.64l-.85,.1c1.77,14.86,6.14,22.76,13.37,24.16l.65-3.36c-5.5-1.06-9.07-8.19-10.62-21.2Z"/>
            </g>
          </g>
          <path class="uuid-c1edacf8-68a4-4e09-a6cc-e70006bcf6cd" d="M154.95,97.09c1.45-1.14,3.02-2.2,4.77-2.47,.8-.13,1.81,.05,2.12,.92,.25,.69-.09,1.46-.52,2.01-1.18,1.49-3,2-4.62,2.8-3.49,1.71-6.54,4.67-10.45,4.98-.74,.06-1.54,.02-2.13-.48-.02-.3,.19-.56,.43-.67s.51-.11,.77-.14c1.65-.19,3.45-1.61,4.69-2.8,1.56-1.5,3.26-2.81,4.95-4.12Z"/>
          <path class="uuid-c1edacf8-68a4-4e09-a6cc-e70006bcf6cd" d="M105.42,111.53c-.56,1.88-.78,3.93-.14,5.79,.27,.78,.93,1.62,1.73,1.43,.68-.16,.97-.95,1.15-1.62,1.1-3.94,2.72-7.96,5.9-10.54,1.26-1.02,2.73-1.78,3.86-2.94,.23-.24,.45-.5,.54-.82,1.03-3.93-6.52,.24-7.3,.74-2.79,1.83-4.8,4.79-5.74,7.96Z"/>
          <path class="uuid-c1edacf8-68a4-4e09-a6cc-e70006bcf6cd" d="M122.98,102.65c.94,.35,2.2,.43,3.02,.42,.3,0,.6-.03,.87-.15s.5-.36,.54-.66c.28-2.14-3-2.38-4.33-2.06-.48,.12-1.02,.29-1.24,.74-.21,.45,.01,1.01,.4,1.31,.2,.16,.45,.29,.73,.39Z"/>
        </g>
        <path class="uuid-481430c7-31cb-4620-8c37-ec9bf60003c0" d="M82.61,131.71c1.48,3.28,.02,7.15-3.26,8.63-3.28,1.48-7.15,.02-8.63-3.26-1.48-3.28-.02-7.15,3.26-8.63,3.28-1.48,7.15-.02,8.63,3.26Z"/>
        <path class="uuid-1f483df3-e90d-4ebe-afbd-ddf551da0d2f" d="M81.34,132.32c1.05,2.32,.02,5.06-2.31,6.11-2.32,1.05-5.06,.02-6.11-2.31-1.05-2.32-.02-5.06,2.31-6.11,2.32-1.05,5.06-.02,6.11,2.31Z"/>
        <g>
          <path class="uuid-a5746e1d-8bbe-454a-8369-540daa81d59b" d="M116.2,169.14c-7.82,2.28-11.45-4.99-15.65-13.42-1.83-3.66-3.9-7.8-6.53-11.74-5.13-7.66-9.07-9.57-11.47-9.82-2.27-.23-3.52,.97-3.57,1.02l-1.83-1.8c.08-.09,2.08-2.1,5.56-1.78,4.32,.39,8.84,4.08,13.45,10.95,2.73,4.07,4.83,8.3,6.69,12.02,4.52,9.05,7.13,13.7,12.63,12.1l.72,2.47Z"/>
          <g class="uuid-bd2078ba-a317-4df5-9e39-e10ce69733f6">
            <g class="uuid-cb833bad-daa6-44a7-bd42-f5b02d00470a">
              <path class="uuid-a5746e1d-8bbe-454a-8369-540daa81d59b" d="M116.84,169.6c-.68-.02-1.36-.04-2.04-.06-.83-.02-1.68-.05-2.47-.3-.97-.31-1.81-.94-2.57-1.62-3.92-3.49-6.2-8.49-8.52-13.1-1.84-3.65-3.92-7.79-6.58-11.72-1.89-2.8-4.03-5.57-6.74-7.63-.8-.61-1.66-1.16-2.59-1.56-1.13-.48-2.5-.3-3.47-1.1-.36-.3-.62-.71-.99-1-.7-.58-1.79-.63-2.55-.13-.73,.48-1.1,1.36-1.31,2.22-.19,.79-.25,1.7-.63,2.42-.33,.63-.97,1.13-1.06,1.9-.13,1.06,.26,2.1,.63,3.1,.7,1.85,1.4,3.69,2.1,5.54,.95,2.5,1.92,5.02,3.31,7.31,1.65,2.72,3.86,5.06,6.14,7.28,6.05,5.88,12.99,11.22,21.13,13.44,3.5,.95,7.63,1.16,10.34-1.24,.59-.52,1.1-1.19,1.17-1.97,.13-1.43-1.22-1.72-2.37-1.75-.32,0-.63-.02-.95-.03Z"/>
            </g>
          </g>
        </g>
        <g>
          <path class="uuid-a5746e1d-8bbe-454a-8369-540daa81d59b" d="M177.35,157.5s-.03,.01-.05,.02l-.92-2.4s.03-.01,.05-.02c5.85-2.26,10.98-7.94,4.87-32.63l2.49-.62c5.25,21.21,3.32,31.87-6.44,35.65Z"/>
          <g class="uuid-c9efb7b8-9cb1-4ebc-9506-10522296ef74">
            <g class="uuid-cb833bad-daa6-44a7-bd42-f5b02d00470a">
              <path class="uuid-a5746e1d-8bbe-454a-8369-540daa81d59b" d="M174.18,155.78s-.03,0-.05,.01l-.71-2.47s.03,0,.05-.01c6.02-1.74,11.63-6.95,7.68-32.09l2.54-.4c3.39,21.58,.54,32.04-9.51,34.96Z"/>
            </g>
          </g>
        </g>
        <g>
          <path class="uuid-a5746e1d-8bbe-454a-8369-540daa81d59b" d="M177.3,157.52c-.43,.17-.89,.32-1.35,.46-12.21,3.68-20.95-14.71-29.4-32.5-8.05-16.95-16.38-34.48-26.53-30.58l-.92-2.4c12.37-4.76,21.22,13.86,29.78,31.87,7.99,16.81,16.24,34.19,26.34,31.14,.41-.12,.8-.26,1.18-.4l.92,2.4Z"/>
          <g class="uuid-4f31688b-17fc-4133-9ac3-53915c265dd6">
            <g class="uuid-cb833bad-daa6-44a7-bd42-f5b02d00470a">
              <path class="uuid-a5746e1d-8bbe-454a-8369-540daa81d59b" d="M177.57,160.17c-.43,.17-.89,.32-1.35,.46-12.21,3.68-20.95-14.71-29.4-32.5-8.05-16.95-16.38-34.48-26.53-30.58l-.92-2.4c12.37-4.76,21.22,13.86,29.78,31.87,7.99,16.81,16.24,34.19,26.34,31.14,.41-.12,.8-.26,1.18-.4l.92,2.4Z"/>
            </g>
          </g>
        </g>
        <path class="uuid-481430c7-31cb-4620-8c37-ec9bf60003c0" d="M162.1,106.14c-2.5-4.5-4.55-9-6.4-13.21-2.42-5.51-2.79-10.16-1.08-13.46,1.23-2.37,3.55-4.01,6.54-4.61l.34,1.68c-1.74,.35-4.09,1.28-5.36,3.72-1.47,2.82-1.08,6.96,1.13,11.98,1.83,4.16,3.86,8.63,6.32,13.06l-1.5,.83Z"/>
        <g>
          <path class="uuid-a5746e1d-8bbe-454a-8369-540daa81d59b" d="M192.65,99.19c-1.44,13.02-4.95,20.19-10.44,21.29h0c-5.49,1.11-11.5-4.14-17.87-15.59l-2.99,1.66c7.27,13.08,14.31,18.74,21.53,17.28h0c.63-.13,1.24-.3,1.83-.53,6.12-2.37,9.84-10.16,11.34-23.74l-3.4-.38Z"/>
          <g class="uuid-342b1d0b-5550-4ca6-91dc-cbfd1b87ff1a">
            <path class="uuid-264732da-ae33-4052-b45a-c90ea0066b5a" d="M194.34,98.38c.02-.08,.04-.16,.07-.23,.15-.52,.35-1.04,.71-1.45,1.14-1.31,2.84-.33,3.88,.54,2.19,1.83,4.23,4.12,4.77,6.92,.41,2.12-.08,4.3-.74,6.35-1.76,5.43-4.89,10.5-9.38,14.03s-10.41,5.37-16.03,4.41c-4.44-.76-8.42-3.16-12.13-5.72-1.92-1.32-3.81-2.72-5.29-4.52-1.14-1.39-2-2.98-2.67-4.65-.68-1.68-1.17-3.49-1-5.29s1.07-3.62,2.64-4.51c4.03,4.64,6.25,10.37,11.11,14.43,3.12,2.61,7,4.32,11.12,3.49,.63-.13,1.24-.3,1.83-.53,3.99-1.54,6.47-5.28,8.03-9.09,.97-2.35,1.58-4.82,2.03-7.31,.4-2.25,.44-4.66,1.05-6.87Z"/>
          </g>
        </g>
        <path class="uuid-481430c7-31cb-4620-8c37-ec9bf60003c0" d="M195.2,99.47l-1.7-.19c.56-5.04,.7-9.94,.78-14.49,.09-5.48-1.15-9.45-3.6-11.48-2.11-1.76-4.63-1.71-6.38-1.36l-.34-1.68c2.98-.6,5.76,.01,7.81,1.72,2.85,2.38,4.31,6.81,4.21,12.83-.08,4.59-.22,9.54-.79,14.65Z"/>
        <g>
          <rect class="uuid-a5746e1d-8bbe-454a-8369-540daa81d59b" x="158.59" y="74.5" width="2.59" height="3.59" transform="translate(-16.71 62.23) rotate(-20.96)"/>
          <g>
            <path class="uuid-1f483df3-e90d-4ebe-afbd-ddf551da0d2f" d="M168.06,73.17s0,0,0,0c-.03-.09-.07-.17-.14-.23-.98-1.37-4.28-1.09-5.21-.99-.98,.1-1.73,.66-2.26,2.21l.38,.99,.52,1.36,.38,.99c1.43,.8,2.36,.72,3.16,.14,.76-.55,3.41-2.54,3.22-4.22,0-.09-.01-.17-.05-.26,0,0,0,0,0,0Z"/>
            <g class="uuid-a4937050-7acb-461b-8723-8c9addb54b1f">
              <path class="uuid-481430c7-31cb-4620-8c37-ec9bf60003c0" d="M173.71,69.88c.74,1.93-1.36,4.53-4.68,5.8-3.33,1.27-6.62,.74-7.36-1.19-.74-1.93,1.36-4.53,4.68-5.8,3.33-1.27,6.62-.74,7.36,1.19Z"/>
            </g>
          </g>
        </g>
        <g>
          <rect class="uuid-a5746e1d-8bbe-454a-8369-540daa81d59b" x="184.47" y="68.99" width="2.59" height="3.59" transform="translate(375.61 129.78) rotate(176.4)"/>
          <g>
            <path class="uuid-1f483df3-e90d-4ebe-afbd-ddf551da0d2f" d="M177.03,71.34s0,0,0,0c-.01-.09,0-.18,.03-.26,.32-1.65,3.44-2.77,4.33-3.06,.94-.31,1.85-.12,2.98,1.07l.07,1.06,.09,1.46,.07,1.06c-.97,1.32-1.85,1.63-2.82,1.44-.92-.18-4.15-.9-4.68-2.5-.04-.08-.06-.16-.06-.26,0,0,0,0,0,0Z"/>
            <g class="uuid-09597ef4-9f3e-4577-8a29-afc777610c28">
              <path class="uuid-481430c7-31cb-4620-8c37-ec9bf60003c0" d="M170.53,70.7c.13,2.06,3.12,3.55,6.67,3.33,3.55-.22,6.33-2.08,6.2-4.14-.13-2.06-3.12-3.55-6.67-3.33-3.55,.22-6.33,2.08-6.2,4.14Z"/>
            </g>
          </g>
        </g>
        <path class="uuid-a5746e1d-8bbe-454a-8369-540daa81d59b" d="M80.46,132.68c.95,2.1,.01,4.56-2.08,5.51-2.1,.95-4.56,.01-5.51-2.08-.95-2.1-.01-4.56,2.08-5.51,2.1-.95,4.56-.01,5.51,2.08Z"/>
        <path class="uuid-c1edacf8-68a4-4e09-a6cc-e70006bcf6cd" d="M78.66,136.35c-2.1,.95-4.56,.01-5.51-2.08-.2-.45-.31-.91-.35-1.38-.39,1.01-.4,2.17,.08,3.23,.95,2.1,3.42,3.03,5.51,2.08,1.65-.74,2.57-2.43,2.43-4.13-.38,.98-1.13,1.81-2.16,2.28Z"/>
      </g>
      <g>
        <path class="uuid-359c8854-cdb1-4b0e-a7c2-c2a6b9d92835" d="M101.04,105.95c0,.08-5.27,30.61-3.23,40.95l-61.55,16.6c3.24-4.98,5.32-10.71,6.07-16.6,.34-2.63,.43-5.31,.23-7.97-.22,.09-.44,.16-.66,.23-5.37,1.82-11.04,2.58-16.69,3.03-3.99,.32-8.15,.48-11.84-1.05-.96-.41-1.91-.94-2.49-1.81-1.17-1.76-.41-4.08-.04-6.17,.69-3.83-.14-7.92-2.27-11.17-.57-.86-1.25-1.71-1.45-2.73-.46-2.15,1.25-4.01,3.03-5.43-.56-.03-1.11-.3-1.56-.68-.55-.46-.96-1.07-1.35-1.67-.29-.42-.57-.85-.64-1.35-.13-1,.62-1.87,1.23-2.68,.67-.91,1.23-1.92,1.63-2.99-3.09-1.73-5.86-4.01-8.17-6.69-.63-.72-1.24-1.54-1.28-2.5-.1-2.09,2.35-3.19,4.24-4.1,4.11-1.98,7.35-5.68,8.78-10.01,2.1-6.35,.3-13.24,.1-19.92-.02-.56-.03-1.11,0-1.67,.68,8.78,22.83,15.82,50.03,15.82s50.05-7.27,50.05-16.24c2.2,15.27-1.83,32.12-12.15,46.79Z"/>
        <path class="uuid-623d1375-242a-478c-b96a-39434d85fb54" d="M56.02,130.03c-2.49,6.95-7.39,13.01-13.69,16.87,.34-2.63,.43-5.31,.22-7.97,5.13-1.84,9.94-4.75,13.42-8.92l.04,.02Z"/>
        <path class="uuid-dffa7c4f-16c4-47bc-9e8b-d1ee00d435ca" d="M113.19,59.16c0,6.38-11.31,11.89-27.77,14.55-6.71,1.08-14.28,1.7-22.29,1.7-9.33,0-18.06-.83-25.53-2.27-14.33-2.77-24.04-7.79-24.49-13.56h0c0-.32,0-.63,.02-.94,0-.02,0-.04,0-.06,.57-5.31,9.02-9.98,21.67-12.81,8.06-1.81,17.81-2.86,28.34-2.86,9.19,0,17.81,.8,25.21,2.21,13.43,2.55,22.88,7.07,24.57,12.34,.11,.57,.2,1.13,.28,1.7Z"/>
        <path class="uuid-623d1375-242a-478c-b96a-39434d85fb54" d="M112.81,60.17c-4.33,5.65-10.79,9.45-17.8,10.64-1.04,.18-.6,1.76,.44,1.58,7.46-1.26,14.19-5.41,18.78-11.39,.64-.84-.78-1.66-1.42-.83Z"/>
        <path class="uuid-09bafd8d-448e-4260-b782-441587362fd8" d="M90.81,56.84c0,6.29-1.99,12.1-5.38,16.86-6.71,1.08-14.28,1.7-22.29,1.7-9.33,0-18.06-.83-25.53-2.27-3.15-4.65-4.99-10.26-4.99-16.29,0-3.92,.78-7.66,2.18-11.08,4.36-10.58,14.77-18.02,26.91-18.02s22.12,7.14,26.63,17.37c1.58,3.59,2.46,7.56,2.46,11.73Z"/>
        <path class="uuid-359c8854-cdb1-4b0e-a7c2-c2a6b9d92835" d="M94.77,93.72c-3.45,5.64-12.83,13.26-18.78,6.55-2.75-3.09-3.68-7.69-3.87-11.71-.21-4.19,.39-8.63,1.8-12.6,1.2-3.36,3.27-6.55,6.68-7.97,.62-.26,1.26-.44,1.9-.57,4.05-1.36,8.58,.35,11.34,3.48,5.42,6.16,5.06,16.08,.94,22.81Z"/>
        <path class="uuid-623d1375-242a-478c-b96a-39434d85fb54" d="M95.79,71.75c-2.54-3.65-6.97-5.67-11.4-5.16-4.8,.56-8.81,4.12-10.17,8.72-.3,1.02,1.28,1.45,1.58,.44,1.04-3.55,3.95-6.44,7.57-7.32,3.83-.93,8.03,.5,10.53,3.54,2.77,3.37,3.28,8.06,2.49,12.22-.8,4.16-2.58,8.48-5.25,11.79-2.89,3.59-7.46,6.15-12.16,4.97-1.02-.26-1.46,1.32-.44,1.58,10.25,2.58,17.15-8.33,19.19-16.81,1.12-4.67,.88-9.92-1.95-13.97Z"/>
        <path class="uuid-623d1375-242a-478c-b96a-39434d85fb54" d="M75.05,74.98c-4.07,.24-8.15,.18-12.21-.16-1.05-.09-1.05,1.55,0,1.64,4.06,.35,8.14,.4,12.21,.16,1.05-.06,1.06-1.7,0-1.64Z"/>
        <path class="uuid-623d1375-242a-478c-b96a-39434d85fb54" d="M41.95,73.79c-10.32-2.54-21.51-5.44-28.4-14.19-.65-.83-1.81,.34-1.16,1.16,7.06,8.97,18.55,12.01,29.13,14.61,1.03,.25,1.46-1.33,.44-1.58Z"/>
        <path class="uuid-623d1375-242a-478c-b96a-39434d85fb54" d="M60.89,.79V26.11c0,1.06,1.64,1.06,1.64,0V.79c0-1.06-1.64-1.06-1.64,0Z"/>
        <path class="uuid-623d1375-242a-478c-b96a-39434d85fb54" d="M20.35,57.81h8.91c1.06,0,1.06-1.64,0-1.64h-8.91c-1.06,0-1.06,1.64,0,1.64Z"/>
        <path class="uuid-623d1375-242a-478c-b96a-39434d85fb54" d="M93.01,57.81h8.91c1.06,0,1.06-1.64,0-1.64h-8.91c-1.06,0-1.06,1.64,0,1.64Z"/>
        <path class="uuid-623d1375-242a-478c-b96a-39434d85fb54" d="M23.42,20.72l14.54,14.54c.75,.75,1.91-.41,1.16-1.16l-14.54-14.54c-.75-.75-1.91,.41-1.16,1.16Z"/>
        <path class="uuid-623d1375-242a-478c-b96a-39434d85fb54" d="M100,20.72l-14.54,14.54c-.75,.75-1.91-.41-1.16-1.16l14.54-14.54c.75-.75,1.91,.41,1.16,1.16Z"/>
        <path class="uuid-623d1375-242a-478c-b96a-39434d85fb54" d="M50.04,27.4c-1.63-3.83-3.26-7.65-4.88-11.48-.17-.41-.77-.49-1.12-.29-.42,.24-.47,.72-.29,1.12,1.63,3.83,3.26,7.65,4.88,11.48,.17,.41,.77,.49,1.12,.29,.42-.24,.47-.72,.29-1.12Z"/>
        <path class="uuid-623d1375-242a-478c-b96a-39434d85fb54" d="M73.38,27.4c1.63-3.83,3.26-7.65,4.88-11.48,.17-.41,.77-.49,1.12-.29,.42,.24,.47,.72,.29,1.12-1.63,3.83-3.26,7.65-4.88,11.48-.17,.41-.77,.49-1.12,.29-.42-.24-.47-.72-.29-1.12Z"/>
        <path class="uuid-623d1375-242a-478c-b96a-39434d85fb54" d="M117.62,32.58c-8.93,4.27-17.86,8.54-26.79,12.8-.95,.46-.12,1.87,.83,1.42l26.79-12.8c.95-.46,.12-1.87-.83-1.42Z"/>
        <path class="uuid-623d1375-242a-478c-b96a-39434d85fb54" d="M5.41,33.22c8.93,4.27,17.86,8.54,26.79,12.8,.95,.46,.12,1.87-.83,1.42L4.58,34.64c-.95-.46-.12-1.87,.83-1.42Z"/>
        <circle class="uuid-dffa7c4f-16c4-47bc-9e8b-d1ee00d435ca" cx="46.48" cy="105.43" r="13.29"/>
      </g>
    </g>
  </g>
</svg>